<?xml version="1.0" encoding="UTF-8" standalone="no"?>
<svg
   xmlns:dc="http://purl.org/dc/elements/1.1/"
   xmlns:cc="http://creativecommons.org/ns#"
   xmlns:rdf="http://www.w3.org/1999/02/22-rdf-syntax-ns#"
   xmlns:svg="http://www.w3.org/2000/svg"
   xmlns="http://www.w3.org/2000/svg"
   xmlns:sodipodi="http://sodipodi.sourceforge.net/DTD/sodipodi-0.dtd"
   xmlns:inkscape="http://www.inkscape.org/namespaces/inkscape"
   style="isolation:isolate"
   viewBox="0 0 512 512"
   width="512"
   height="512"
   version="1.1"
   id="svg1674"
   sodipodi:docname="weather_09n.svg"
   inkscape:version="1.0.1 (0767f8302a, 2020-10-17)">
  <metadata
     id="metadata1680">
    <rdf:RDF>
      <cc:Work
         rdf:about="">
        <dc:format>image/svg+xml</dc:format>
        <dc:type
           rdf:resource="http://purl.org/dc/dcmitype/StillImage" />
      </cc:Work>
    </rdf:RDF>
  </metadata>
  <defs
     id="defs1678" />
  <sodipodi:namedview
     pagecolor="#ffffff"
     bordercolor="#666666"
     borderopacity="1"
     objecttolerance="10"
     gridtolerance="10"
     guidetolerance="10"
     inkscape:pageopacity="0"
     inkscape:pageshadow="2"
     inkscape:window-width="940"
     inkscape:window-height="480"
     id="namedview1676"
     showgrid="false"
     inkscape:zoom="1.6835938"
     inkscape:cx="148.1949"
     inkscape:cy="256"
     inkscape:window-x="72"
     inkscape:window-y="27"
     inkscape:window-maximized="0"
     inkscape:current-layer="svg1674" />
  <g
     id="g1672"
     style="stroke-width:0.999998;fill:#ffffff">
    <g
       id="Cloud__x2B__Heavy_Rain"
       style="stroke-width:0.999998;fill:#ffffff">
      <g
         id="null"
         style="stroke-width:0.999998;fill:#ffffff">
        <path
           d="m 431.401,141.55 c 0.588,-5 1.149,-10.791 1.149,-15.038 C 432.55,56.752 376.363,0 307.313,0 263.363,0 222.816,23.428 200.274,60.81 186.281,51.13 169.727,45.937 152.416,45.937 c -46.889,0 -85.039,38.541 -85.039,85.914 0,5.212 0.476,10.41 1.385,15.514 -40.264,14.736 -67.468,53.3 -67.468,97.557 0,56.323 44.186,98.786 102.788,98.786 h 294.239 c 56.677,0 102.788,-46.573 102.788,-103.819 0.005,-44.492 -28.733,-84.215 -69.708,-98.339 z M 398.326,319.946 H 104.082 c -45.193,0 -79.266,-32.265 -79.266,-75.029 0,-37.288 25.019,-69.313 60.843,-77.905 3.225,-0.758 5.979,-2.858 7.58,-5.787 1.61,-2.928 1.912,-6.398 0.866,-9.562 -2.128,-6.356 -3.201,-13.013 -3.201,-19.812 0,-34.27 27.594,-62.133 61.502,-62.133 16.295,0 31.662,6.375 43.254,17.947 2.74,2.717 6.624,3.969 10.405,3.216 3.795,-0.687 6.991,-3.239 8.583,-6.756 16.459,-36.658 52.844,-60.34 92.66,-60.34 56.074,0 101.701,46.07 101.701,102.727 0,5.829 -1.643,17.712 -2.269,21.799 -0.956,6.205 2.999,12.086 9.044,13.456 35.81,8.102 61.813,40.951 61.813,78.122 -0.009,44.139 -35.556,80.057 -79.271,80.057 z m -266.141,56.813 c -6.46,-0.89 -12.387,3.62 -13.296,10.108 l -7.853,56.135 c -0.904,6.493 3.583,12.515 10.005,13.437 0.565,0.076 1.12,0.099 1.666,0.099 5.777,0 10.805,-4.265 11.644,-10.202 l 7.839,-56.135 c 0.908,-6.493 -3.583,-12.51 -10.005,-13.442 z m 81.38,0 c -6.46,-0.89 -12.387,3.62 -13.296,10.108 L 184.577,498.45 c -0.909,6.493 3.569,12.514 9.991,13.437 0.565,0.099 1.12,0.113 1.671,0.113 5.767,0 10.796,-4.27 11.634,-10.198 l 15.692,-111.587 c 0.909,-6.507 -3.559,-12.496 -10,-13.456 z m 84.29,0 c -6.451,-0.89 -12.406,3.62 -13.31,10.108 L 268.867,498.45 c -0.923,6.493 3.554,12.514 9.986,13.437 0.569,0.099 1.115,0.113 1.666,0.113 5.768,0 10.805,-4.27 11.634,-10.198 l 15.688,-111.587 c 0.908,-6.507 -3.56,-12.496 -9.986,-13.456 z m 81.37,0 c -6.483,-0.89 -12.387,3.62 -13.296,10.108 l -7.853,56.135 c -0.894,6.493 3.578,12.515 10.014,13.437 0.551,0.076 1.102,0.099 1.653,0.099 5.782,0 10.805,-4.265 11.648,-10.202 l 7.844,-56.135 c 0.894,-6.493 -3.593,-12.51 -10.01,-13.442 z"
           fill="#010101"
           id="path1668"
           style="stroke-width:0.0223565;fill:#ffffff" />
      </g>
    </g>
  </g>
</svg>
