<?xml version="1.0" encoding="UTF-8" standalone="no"?>
<svg
   xmlns:dc="http://purl.org/dc/elements/1.1/"
   xmlns:cc="http://creativecommons.org/ns#"
   xmlns:rdf="http://www.w3.org/1999/02/22-rdf-syntax-ns#"
   xmlns:svg="http://www.w3.org/2000/svg"
   xmlns="http://www.w3.org/2000/svg"
   xmlns:sodipodi="http://sodipodi.sourceforge.net/DTD/sodipodi-0.dtd"
   xmlns:inkscape="http://www.inkscape.org/namespaces/inkscape"
   version="1.1"
   viewBox="0 0 512 512"
   enable-background="new 0 0 512 512"
   id="svg740"
   sodipodi:docname="weather_1232n.svg"
   inkscape:version="1.0.1 (0767f8302a, 2020-10-17)">
  <metadata
     id="metadata746">
    <rdf:RDF>
      <cc:Work
         rdf:about="">
        <dc:format>image/svg+xml</dc:format>
        <dc:type
           rdf:resource="http://purl.org/dc/dcmitype/StillImage" />
      </cc:Work>
    </rdf:RDF>
  </metadata>
  <defs
     id="defs744" />
  <sodipodi:namedview
     pagecolor="#ffffff"
     bordercolor="#666666"
     borderopacity="1"
     objecttolerance="10"
     gridtolerance="10"
     guidetolerance="10"
     inkscape:pageopacity="0"
     inkscape:pageshadow="2"
     inkscape:window-width="827"
     inkscape:window-height="480"
     id="namedview742"
     showgrid="false"
     inkscape:zoom="1.6835938"
     inkscape:cx="256"
     inkscape:cy="256"
     inkscape:window-x="72"
     inkscape:window-y="27"
     inkscape:window-maximized="0"
     inkscape:current-layer="svg740" />
  <g
     id="g738"
     style="fill:#ffffff">
    <path
       d="m467.4,299c-7.8-8.1-16.6-14.9-26.2-20.4 2.2-1.9 4.3-3.9 6.4-6 23.2-23.2 37.5-52 42.8-82.1 2.7-15.1-15.7-24.6-26.6-13.8-18.2,18.1-43.5,29.1-71.3,28.5-52.3-1.1-95-43.7-96.1-96.1-0.4-27.8 10.6-53.1 28.7-71.3 10.8-10.9 1.3-29.2-13.8-26.6-30.1,5.3-58.9,19.6-82.1,42.8-27.8,27.8-42.8,63.6-45,100-43.3,21.4-75.3,62.7-83.6,112.3-52.2,13.2-89.7,60.2-89.7,115.5-1.95399e-14,65.7 53.4,119.2 119.1,119.2h251.7c65.7,0 119.1-53.5 119.1-119.2 0.1-31-11.8-60.5-33.4-82.8zm-204.8-219.7c-1.9,8.9-2.9,18.2-2.9,27.7 0,74.6 60.4,135 135,135 9.5,0 18.8-1 27.7-2.9-20.7,22.9-50.7,37.3-84,37.3-62.5,0-113.2-50.7-113.2-113.2-5.68434e-14-33.2 14.4-63.1 37.4-83.9zm119.1,380.6h-251.7c-43,0-78.1-35-78.1-78.1 0-39.9 29.9-73.3 69.5-77.6l17.2-1.9 1.1-17.3c2.2-35.7 20.9-66.7 48.4-85.7 6.4,26.8 20.1,52.3 41,73.2 45.8,45.8 113.2,56.8 169.4,33.1 35.3,7.7 61.2,38.8 61.2,76.2 0.1,43.1-34.9,78.1-78,78.1z"
       id="path736"
       style="fill:#ffffff" />
  </g>
</svg>
