<?xml version="1.0" encoding="UTF-8" standalone="no"?>
<svg
   xmlns:dc="http://purl.org/dc/elements/1.1/"
   xmlns:cc="http://creativecommons.org/ns#"
   xmlns:rdf="http://www.w3.org/1999/02/22-rdf-syntax-ns#"
   xmlns:svg="http://www.w3.org/2000/svg"
   xmlns="http://www.w3.org/2000/svg"
   xmlns:sodipodi="http://sodipodi.sourceforge.net/DTD/sodipodi-0.dtd"
   xmlns:inkscape="http://www.inkscape.org/namespaces/inkscape"
   style="isolation:isolate"
   viewBox="0 0 512 512"
   width="512"
   height="512"
   version="1.1"
   id="svg1190"
   sodipodi:docname="weather_11d.svg"
   inkscape:version="1.0.1 (0767f8302a, 2020-10-17)">
  <metadata
     id="metadata1196">
    <rdf:RDF>
      <cc:Work
         rdf:about="">
        <dc:format>image/svg+xml</dc:format>
        <dc:type
           rdf:resource="http://purl.org/dc/dcmitype/StillImage" />
      </cc:Work>
    </rdf:RDF>
  </metadata>
  <defs
     id="defs1194" />
  <sodipodi:namedview
     pagecolor="#ffffff"
     bordercolor="#666666"
     borderopacity="1"
     objecttolerance="10"
     gridtolerance="10"
     guidetolerance="10"
     inkscape:pageopacity="0"
     inkscape:pageshadow="2"
     inkscape:window-width="940"
     inkscape:window-height="480"
     id="namedview1192"
     showgrid="false"
     inkscape:zoom="1.6835938"
     inkscape:cx="148.1949"
     inkscape:cy="256"
     inkscape:window-x="72"
     inkscape:window-y="27"
     inkscape:window-maximized="0"
     inkscape:current-layer="svg1190" />
  <g
     id="g1188"
     style="stroke-width:0.999999;fill:#ffffff">
    <g
       id="null"
       style="stroke-width:0.999999;fill:#ffffff">
      <path
         d="M 411.247,145.67 C 405.951,72.787 342.843,15.057 266.038,15.057 c -60.931,0 -114.627,36.029 -136.05,90.432 -1.489,-0.054 -2.99,-0.079 -4.499,-0.079 C 56.295,105.407 0,161.701 0,230.899 0,300.097 56.295,356.391 125.492,356.391 h 18.241 l -2.497,6.383 c -1.205,3.088 -0.814,6.574 1.059,9.319 1.872,2.739 4.98,4.378 8.294,4.378 h 100.392 v 110.432 c 0,4.696 3.255,8.765 7.833,9.795 0.735,0.166 1.481,0.245 2.205,0.245 3.814,0 7.382,-2.176 9.068,-5.735 L 334.27,355.887 c 0.822,0.217 1.622,0.507 2.515,0.507 24.95,0 74.814,-0.127 75.304,-0.144 C 468.107,353.367 512,307.127 512,250.981 512.003,194.414 467.221,148.114 411.247,145.67 Z M 271.058,442.307 v -75.879 c 0.003,-5.543 -4.487,-10.04 -10.037,-10.04 H 165.294 L 230.902,188.73 v 107.667 c 0,5.544 4.49,10.04 10.04,10.04 h 94.559 z M 411.543,336.182 c 0,0 -41.804,0.107 -67.987,0.127 l 16.887,-35.604 c 1.481,-3.114 1.255,-6.76 -0.589,-9.671 -1.833,-2.909 -5.039,-4.671 -8.48,-4.671 H 250.981 V 135.524 c 0,-4.829 -3.432,-8.97 -8.176,-9.863 -4.746,-0.901 -9.451,1.712 -11.216,6.205 l -79.998,204.44 -24.472,-0.009 -1.627,0.009 c -58.127,0 -105.412,-47.288 -105.412,-105.413 0,-58.124 47.285,-105.412 105.412,-105.412 3.5,0 6.971,0.172 10.392,0.504 4.617,0.481 9.04,-2.374 10.51,-6.842 16.597,-50.247 64.687,-84.012 119.647,-84.012 69.198,0 125.492,54.045 125.492,120.472 0,5.442 4.333,9.894 9.776,10.034 1.236,0.026 2.449,0.02 3.685,0.014 l 1.599,-0.011 c 47.049,0 85.333,38.279 85.333,85.333 0,45.455 -35.522,82.886 -80.383,85.209 z"
         fill="#010101"
         id="path1185"
         style="stroke-width:0.0226274;fill:#ffffff" />
    </g>
  </g>
</svg>
