<?xml version="1.0" encoding="UTF-8" standalone="no"?>
<svg
   xmlns:dc="http://purl.org/dc/elements/1.1/"
   xmlns:cc="http://creativecommons.org/ns#"
   xmlns:rdf="http://www.w3.org/1999/02/22-rdf-syntax-ns#"
   xmlns:svg="http://www.w3.org/2000/svg"
   xmlns="http://www.w3.org/2000/svg"
   xmlns:sodipodi="http://sodipodi.sourceforge.net/DTD/sodipodi-0.dtd"
   xmlns:inkscape="http://www.inkscape.org/namespaces/inkscape"
   version="1.1"
   id="Capa_1"
   x="0px"
   y="0px"
   width="512px"
   height="512px"
   viewBox="0 0 512 512"
   style="enable-background:new 0 0 512 512;"
   xml:space="preserve"
   sodipodi:docname="weather_04n.svg"
   inkscape:version="1.0.1 (0767f8302a, 2020-10-17)"><metadata
   id="metadata890"><rdf:RDF><cc:Work
       rdf:about=""><dc:format>image/svg+xml</dc:format><dc:type
         rdf:resource="http://purl.org/dc/dcmitype/StillImage" /></cc:Work></rdf:RDF></metadata><defs
   id="defs888" /><sodipodi:namedview
   pagecolor="#ffffff"
   bordercolor="#666666"
   borderopacity="1"
   objecttolerance="10"
   gridtolerance="10"
   guidetolerance="10"
   inkscape:pageopacity="0"
   inkscape:pageshadow="2"
   inkscape:window-width="1848"
   inkscape:window-height="1016"
   id="namedview886"
   showgrid="false"
   inkscape:zoom="1.6113281"
   inkscape:cx="256"
   inkscape:cy="256"
   inkscape:window-x="72"
   inkscape:window-y="27"
   inkscape:window-maximized="1"
   inkscape:current-layer="Capa_1" />
<g
   id="g853">
	<path
   d="M320,128c52.562,0,95.375,42.438,96,94.813c-0.25,1.938-0.438,3.875-0.5,5.875l-0.812,23.5l22.25,7.75   C462.688,268.906,480,293.062,480,320c0,35.312-28.688,64-64,64H96c-35.281,0-64-28.688-64-64c0-34.938,28.188-63.438,63-64   c1.5,0.219,3.063,0.406,4.625,0.5l24.313,1.594l8-22.969C140.938,209.313,165.063,192,192,192c3.125,0,6.563,0.375,11.188,1.188   l22.406,4.031l11.156-19.844C253.875,146.938,285.75,128,320,128 M320,96c-47.938,0-89.219,26.688-111.156,65.688   C203.375,160.719,197.781,160,192,160c-41.938,0-77.219,27.063-90.281,64.563C99.813,224.438,97.969,224,96,224c-53,0-96,43-96,96   s43,96,96,96h320c53,0,96-43,96-96c0-41.938-27.062-77.25-64.562-90.313C447.5,227.75,448,225.938,448,224   C448,153.313,390.688,96,320,96L320,96z"
   id="path851"
   style="fill:#ffffff" />
</g>
<g
   id="g855">
</g>
<g
   id="g857">
</g>
<g
   id="g859">
</g>
<g
   id="g861">
</g>
<g
   id="g863">
</g>
<g
   id="g865">
</g>
<g
   id="g867">
</g>
<g
   id="g869">
</g>
<g
   id="g871">
</g>
<g
   id="g873">
</g>
<g
   id="g875">
</g>
<g
   id="g877">
</g>
<g
   id="g879">
</g>
<g
   id="g881">
</g>
<g
   id="g883">
</g>
</svg>
