<?xml version="1.0" encoding="UTF-8" standalone="no"?>
<svg
   xmlns:dc="http://purl.org/dc/elements/1.1/"
   xmlns:cc="http://creativecommons.org/ns#"
   xmlns:rdf="http://www.w3.org/1999/02/22-rdf-syntax-ns#"
   xmlns:svg="http://www.w3.org/2000/svg"
   xmlns="http://www.w3.org/2000/svg"
   xmlns:sodipodi="http://sodipodi.sourceforge.net/DTD/sodipodi-0.dtd"
   xmlns:inkscape="http://www.inkscape.org/namespaces/inkscape"
   version="1.1"
   id="Layer_1"
   x="0px"
   y="0px"
   viewBox="0 0 512 512"
   style="enable-background:new 0 0 512 512;"
   xml:space="preserve"
   sodipodi:docname="weather_02d.svg"
   inkscape:version="1.0.1 (0767f8302a, 2020-10-17)"><metadata
   id="metadata3884"><rdf:RDF><cc:Work
       rdf:about=""><dc:format>image/svg+xml</dc:format><dc:type
         rdf:resource="http://purl.org/dc/dcmitype/StillImage" /></cc:Work></rdf:RDF></metadata><defs
   id="defs3882" /><sodipodi:namedview
   pagecolor="#ffffff"
   bordercolor="#666666"
   borderopacity="1"
   objecttolerance="10"
   gridtolerance="10"
   guidetolerance="10"
   inkscape:pageopacity="0"
   inkscape:pageshadow="2"
   inkscape:window-width="917"
   inkscape:window-height="480"
   id="namedview3880"
   showgrid="false"
   inkscape:zoom="1.6835938"
   inkscape:cx="148.1949"
   inkscape:cy="256"
   inkscape:window-x="72"
   inkscape:window-y="27"
   inkscape:window-maximized="0"
   inkscape:current-layer="Layer_1" />
<g
   id="g3823"
   style="stroke-width:0.999999;fill:#ffffff">
	<g
   id="g3821"
   style="stroke-width:0.999999;fill:#ffffff">
		<path
   d="m 326.4,44.8 c -10.605,0 -19.2,8.596 -19.2,19.2 v 12.8 c 0,10.604 8.595,19.2 19.2,19.2 10.602,0 19.2,-8.596 19.2,-19.2 V 64 c 0,-10.604 -8.598,-19.2 -19.2,-19.2 z"
   id="path3819"
   style="stroke-width:0.999999;fill:#ffffff" />
	</g>
</g>
<g
   id="g3829"
   style="stroke-width:0.999999;fill:#ffffff">
	<g
   id="g3827"
   style="stroke-width:0.999999;fill:#ffffff">
		<path
   d="m 422.4,230.4 c 0,-52.934 -43.066,-96 -96,-96 -20.945,0 -40.852,6.629 -57.571,19.172 -10.115,7.589 -18.657,17.195 -25.083,28.035 -14.103,-5.665 -29.432,-8.755 -45.348,-8.755 -65.188,0 -118.56,51.56 -121.472,116.042 C 33.499,295.066 0,332.494 0,377.6 c 0,49.407 40.195,89.6 89.6,89.6 h 224 c 59.992,0 108.8,-48.808 108.8,-108.8 0,-24.882 -8.415,-47.823 -22.523,-66.173 C 414.363,275.103 422.4,253.435 422.4,230.4 Z M 313.6,428.8 h -224 c -28.23,0 -51.2,-22.968 -51.2,-51.2 0,-28.232 22.97,-51.2 51.2,-51.2 H 96 c 10.605,0 19.2,-8.596 19.2,-19.2 v -12.749 c 0,-45.878 37.325,-83.2 83.2,-83.2 37.97,0 71.1,25.637 80.567,62.344 2.188,8.48 9.836,14.405 18.592,14.405 H 313.6 c 38.82,0 70.4,31.581 70.4,70.4 0,38.819 -31.58,70.4 -70.4,70.4 z M 371.443,266.316 C 354.673,255.744 334.848,249.6 313.6,249.6 h -2.132 c -7.541,-19.06 -19.654,-35.523 -34.843,-48.269 10.13,-17.464 28.82,-28.531 49.775,-28.531 31.761,0 57.6,25.838 57.6,57.6 0,13.297 -4.475,25.83 -12.557,35.916 z"
   id="path3825"
   style="stroke-width:0.999999;fill:#ffffff" />
	</g>
</g>
<g
   id="g3835"
   style="stroke-width:0.999999;fill:#ffffff">
	<g
   id="g3833"
   style="stroke-width:0.999999;fill:#ffffff">
		<path
   d="M 492.8,211.2 H 480 c -10.605,0 -19.2,8.596 -19.2,19.2 0,10.604 8.595,19.2 19.2,19.2 h 12.8 c 10.602,0 19.2,-8.596 19.2,-19.2 0,-10.604 -8.598,-19.2 -19.2,-19.2 z"
   id="path3831"
   style="stroke-width:0.999999;fill:#ffffff" />
	</g>
</g>
<g
   id="g3841"
   style="stroke-width:0.999999;fill:#ffffff">
	<g
   id="g3839"
   style="stroke-width:0.999999;fill:#ffffff">
		<path
   d="m 457.637,99.159 c -7.497,-7.496 -19.654,-7.496 -27.153,0.003 l -9.05,9.051 c -7.497,7.498 -7.497,19.656 0.003,27.154 3.748,3.748 8.66,5.623 13.574,5.623 4.913,0 9.828,-1.875 13.577,-5.626 l 9.05,-9.051 c 7.5,-7.5 7.5,-19.657 -10e-4,-27.154 z"
   id="path3837"
   style="stroke-width:0.999999;fill:#ffffff" />
	</g>
</g>
<g
   id="g3847"
   style="stroke-width:0.999999;fill:#ffffff">
	<g
   id="g3845"
   style="stroke-width:0.999999;fill:#ffffff">
		<path
   d="m 231.364,108.211 -9.05,-9.05 c -7.5,-7.497 -19.654,-7.498 -27.155,0 -7.497,7.497 -7.497,19.653 0,27.153 l 9.051,9.05 c 3.75,3.75 8.663,5.626 13.577,5.626 4.913,0 9.828,-1.875 13.574,-5.624 7.5,-7.498 7.5,-19.654 0.003,-27.155 z"
   id="path3843"
   style="stroke-width:0.999999;fill:#ffffff" />
	</g>
</g>
<g
   id="g3849"
   style="stroke-width:0.999999;fill:#ffffff">
</g>
<g
   id="g3851"
   style="stroke-width:0.999999;fill:#ffffff">
</g>
<g
   id="g3853"
   style="stroke-width:0.999999;fill:#ffffff">
</g>
<g
   id="g3855"
   style="stroke-width:0.999999;fill:#ffffff">
</g>
<g
   id="g3857"
   style="stroke-width:0.999999;fill:#ffffff">
</g>
<g
   id="g3859"
   style="stroke-width:0.999999;fill:#ffffff">
</g>
<g
   id="g3861"
   style="stroke-width:0.999999;fill:#ffffff">
</g>
<g
   id="g3863"
   style="stroke-width:0.999999;fill:#ffffff">
</g>
<g
   id="g3865"
   style="stroke-width:0.999999;fill:#ffffff">
</g>
<g
   id="g3867"
   style="stroke-width:0.999999;fill:#ffffff">
</g>
<g
   id="g3869"
   style="stroke-width:0.999999;fill:#ffffff">
</g>
<g
   id="g3871"
   style="stroke-width:0.999999;fill:#ffffff">
</g>
<g
   id="g3873"
   style="stroke-width:0.999999;fill:#ffffff">
</g>
<g
   id="g3875"
   style="stroke-width:0.999999;fill:#ffffff">
</g>
<g
   id="g3877"
   style="stroke-width:0.999999;fill:#ffffff">
</g>
</svg>
